<svg width="1200" height="900" viewBox="0 0 1200 900" fill="none" xmlns="http://www.w3.org/2000/svg">
  <rect width="1200" height="900" rx="40" fill="#09111F"/>
  <rect x="80" y="90" width="420" height="660" rx="32" fill="#16253B"/>
  <rect x="700" y="150" width="360" height="510" rx="28" fill="#F5F7FA"/>
  <rect x="170" y="200" width="240" height="240" rx="24" fill="#233551"/>
  <rect x="170" y="500" width="240" height="120" rx="20" fill="#233551"/>
  <rect x="760" y="230" width="240" height="36" rx="18" fill="#D9E3F0"/>
  <rect x="760" y="310" width="180" height="24" rx="12" fill="#D9E3F0"/>
  <rect x="760" y="360" width="220" height="24" rx="12" fill="#D9E3F0"/>
  <rect x="760" y="410" width="200" height="24" rx="12" fill="#D9E3F0"/>
  <path d="M500 420C610 420 610 420 700 420" stroke="#1FD08A" stroke-width="20" stroke-linecap="round"/>
  <circle cx="530" cy="420" r="16" fill="#1FD08A"/>
  <circle cx="670" cy="420" r="16" fill="#1FD08A"/>
  <path d="M290 230V410" stroke="#4CC3FF" stroke-width="12" stroke-linecap="round"/>
  <path d="M220 320H360" stroke="#4CC3FF" stroke-width="12" stroke-linecap="round"/>
  <text x="140" y="150" fill="#FFFFFF" font-family="Arial, sans-serif" font-size="44" font-weight="700">Hardware + software</text>
  <text x="770" y="180" fill="#102033" font-family="Arial, sans-serif" font-size="32" font-weight="700">Dashboard</text>
</svg>
