<svg width="1200" height="900" viewBox="0 0 1200 900" fill="none" xmlns="http://www.w3.org/2000/svg">
  <rect width="1200" height="900" rx="40" fill="#F7F3EA"/>
  <rect x="110" y="180" width="220" height="140" rx="28" fill="#102033"/>
  <rect x="490" y="180" width="220" height="140" rx="28" fill="#18C37E" fill-opacity="0.18"/>
  <rect x="870" y="100" width="220" height="140" rx="28" fill="#FFFFFF"/>
  <rect x="870" y="290" width="220" height="140" rx="28" fill="#FFFFFF"/>
  <rect x="870" y="480" width="220" height="140" rx="28" fill="#FFFFFF"/>
  <path d="M330 250H490" stroke="#18C37E" stroke-width="18" stroke-linecap="round"/>
  <path d="M710 250H870" stroke="#18C37E" stroke-width="18" stroke-linecap="round"/>
  <path d="M710 250C810 250 810 360 870 360" stroke="#4CC3FF" stroke-width="18" stroke-linecap="round"/>
  <path d="M710 250C800 250 800 550 870 550" stroke="#F5A84C" stroke-width="18" stroke-linecap="round"/>
  <text x="145" y="256" fill="#FFFFFF" font-family="Arial, sans-serif" font-size="32" font-weight="700">Lead entra</text>
  <text x="540" y="256" fill="#102033" font-family="Arial, sans-serif" font-size="32" font-weight="700">Qualifica</text>
  <text x="913" y="177" fill="#102033" font-family="Arial, sans-serif" font-size="24" font-weight="700">Comercial</text>
  <text x="928" y="367" fill="#102033" font-family="Arial, sans-serif" font-size="24" font-weight="700">Suporte</text>
  <text x="913" y="557" fill="#102033" font-family="Arial, sans-serif" font-size="24" font-weight="700">Operação</text>
</svg>
