<svg xmlns="http://www.w3.org/2000/svg" viewBox="0 0 24 24" fill="#000000">
  <path d="M12 .5a12 12 0 0 0-3.793 23.385c.6.11.82-.26.82-.577v-2.02c-3.338.726-4.042-1.417-4.042-1.417-.547-1.39-1.335-1.76-1.335-1.76-1.09-.745.083-.73.083-.73 1.205.085 1.839 1.237 1.839 1.237 1.07 1.833 2.807 1.303 3.492.996.108-.775.418-1.303.762-1.602-2.665-.303-5.467-1.333-5.467-5.931 0-1.31.468-2.38 1.235-3.22-.124-.303-.535-1.525.117-3.18 0 0 1.008-.323 3.3 1.23a11.454 11.454 0 0 1 6 0c2.29-1.553 3.296-1.23 3.296-1.23.654 1.655.243 2.877.119 3.18.77.84 1.233 1.91 1.233 3.22 0 4.61-2.807 5.624-5.48 5.921.43.37.814 1.103.814 2.222v3.293c0 .32.217.694.825.576A12.001 12.001 0 0 0 12 .5Z"/>
</svg>
